solid Face 3
   facet normal 0.000000 0.000000 -1.000000 
      outer loop 
         vertex 0.000000 10.000000 0.000000 
         vertex 10.000000 10.000000 0.000000 
         vertex 10.000000 0.000000 0.000000 
      endloop 
   endfacet 
   facet normal 0.000000 0.000000 -1.000000 
      outer loop 
         vertex 0.000000 10.000000 0.000000 
         vertex 10.000000 0.000000 0.000000 
         vertex 0.000000 0.000000 0.000000 
      endloop 
   endfacet 
end solid Face 3
solid Face 4
   facet normal -0.000000 -1.000000 0.000000 
      outer loop 
         vertex 10.000000 0.000000 10.000000 
         vertex 0.000000 0.000000 10.000000 
         vertex 0.000000 0.000000 0.000000 
      endloop 
   endfacet 
   facet normal 0.000000 -1.000000 -0.000000 
      outer loop 
         vertex 10.000000 0.000000 10.000000 
         vertex 0.000000 0.000000 0.000000 
         vertex 10.000000 0.000000 0.000000 
      endloop 
   endfacet 
end solid Face 4
solid Face 5
   facet normal 1.000000 0.000000 0.000000 
      outer loop 
         vertex 10.000000 0.000000 10.000000 
         vertex 10.000000 0.000000 0.000000 
         vertex 10.000000 10.000000 0.000000 
      endloop 
   endfacet 
   facet normal 1.000000 -0.000000 0.000000 
      outer loop 
         vertex 10.000000 0.000000 10.000000 
         vertex 10.000000 10.000000 0.000000 
         vertex 10.000000 10.000000 10.000000 
      endloop 
   endfacet 
end solid Face 5
solid Face 6
   facet normal 0.000000 1.000000 0.000000 
      outer loop 
         vertex 10.000000 10.000000 10.000000 
         vertex 10.000000 10.000000 0.000000 
         vertex 0.000000 10.000000 0.000000 
      endloop 
   endfacet 
   facet normal 0.000000 1.000000 0.000000 
      outer loop 
         vertex 10.000000 10.000000 10.000000 
         vertex 0.000000 10.000000 0.000000 
         vertex 0.000000 10.000000 10.000000 
      endloop 
   endfacet 
end solid Face 6
solid Face 7
   facet normal -1.000000 0.000000 -0.000000 
      outer loop 
         vertex 0.000000 10.000000 10.000000 
         vertex 0.000000 10.000000 0.000000 
         vertex 0.000000 0.000000 0.000000 
      endloop 
   endfacet 
   facet normal -1.000000 -0.000000 0.000000 
      outer loop 
         vertex 0.000000 10.000000 10.000000 
         vertex 0.000000 0.000000 0.000000 
         vertex 0.000000 0.000000 10.000000 
      endloop 
   endfacet 
end solid Face 7
solid Face 8
   facet normal 0.000000 0.000000 1.000000 
      outer loop 
         vertex 0.000000 10.000000 10.000000 
         vertex 0.000000 0.000000 10.000000 
         vertex 10.000000 0.000000 10.000000 
      endloop 
   endfacet 
   facet normal -0.000000 0.000000 1.000000 
      outer loop 
         vertex 0.000000 10.000000 10.000000 
         vertex 10.000000 0.000000 10.000000 
         vertex 10.000000 10.000000 10.000000 
      endloop 
   endfacet 
end solid Face 8
