solid Face 63
   facet normal 1.000000 0.000000 0.000000 
      outer loop 
         vertex 10.000000 0.000000 10.000000 
         vertex 10.000000 0.000000 0.000000 
         vertex 10.000000 10.000000 0.000000 
      endloop 
   endfacet 
   facet normal 1.000000 -0.000000 0.000000 
      outer loop 
         vertex 10.000000 0.000000 10.000000 
         vertex 10.000000 10.000000 0.000000 
         vertex 10.000000 10.000000 10.000000 
      endloop 
   endfacet 
end solid Face 63
solid Face 64
   facet normal 0.000000 1.000000 0.000000 
      outer loop 
         vertex 10.000000 10.000000 10.000000 
         vertex 10.000000 10.000000 0.000000 
         vertex 0.000000 10.000000 0.000000 
      endloop 
   endfacet 
   facet normal 0.000000 1.000000 0.000000 
      outer loop 
         vertex 10.000000 10.000000 10.000000 
         vertex 0.000000 10.000000 0.000000 
         vertex 0.000000 10.000000 10.000000 
      endloop 
   endfacet 
end solid Face 64
solid Face 65
   facet normal -1.000000 0.000000 -0.000000 
      outer loop 
         vertex 0.000000 10.000000 10.000000 
         vertex 0.000000 10.000000 0.000000 
         vertex 0.000000 0.000000 0.000000 
      endloop 
   endfacet 
   facet normal -1.000000 -0.000000 0.000000 
      outer loop 
         vertex 0.000000 10.000000 10.000000 
         vertex 0.000000 0.000000 0.000000 
         vertex 0.000000 0.000000 10.000000 
      endloop 
   endfacet 
end solid Face 65
solid Face 61
   facet normal 0.000000 -0.000000 -1.000000 
      outer loop 
         vertex 10.000000 10.000000 0.000000 
         vertex 10.000000 0.000000 0.000000 
         vertex 0.000000 0.000000 0.000000 
      endloop 
   endfacet 
   facet normal -0.000000 0.000000 -1.000000 
      outer loop 
         vertex 10.000000 10.000000 0.000000 
         vertex 0.000000 0.000000 0.000000 
         vertex 0.000000 10.000000 0.000000 
      endloop 
   endfacet 
end solid Face 61
solid Face 66
   facet normal 0.000000 0.000000 1.000000 
      outer loop 
         vertex 0.000000 10.000000 10.000000 
         vertex 0.000000 0.000000 10.000000 
         vertex 10.000000 0.000000 10.000000 
      endloop 
   endfacet 
   facet normal -0.000000 0.000000 1.000000 
      outer loop 
         vertex 0.000000 10.000000 10.000000 
         vertex 10.000000 0.000000 10.000000 
         vertex 10.000000 10.000000 10.000000 
      endloop 
   endfacet 
end solid Face 66
solid Face 62
   facet normal 0.000000 -1.000000 0.000000 
      outer loop 
         vertex 0.000000 0.000000 10.000000 
         vertex 0.000000 0.000000 0.000000 
         vertex 10.000000 0.000000 0.000000 
      endloop 
   endfacet 
   facet normal 0.000000 -1.000000 0.000000 
      outer loop 
         vertex 0.000000 0.000000 10.000000 
         vertex 10.000000 0.000000 0.000000 
         vertex 10.000000 0.000000 10.000000 
      endloop 
   endfacet 
end solid Face 62
